# xmcd
#
# Track frame offsets: 
#        150
#        11900
#        25055
#        36155
#        50067
#        61502
#        74035
#        85042
#        98065
#        108730
#
# Disc length: 1637 seconds
#
# Revision: 2
# Processed by: cddbd v1.5.2PL0 Copyright (c) Steve Scherf et al.
# Submitted via: ExactAudioCopy v0.99pb5
#
DISCID=8206630a
DTITLE=José Alfredo Jiménez - Tesoros de colección [CD 3)
DYEAR=2004
DGENRE=Other
TTITLE0=Paloma querida
TTITLE1=El jinete
TTITLE2=Alma de acero
TTITLE3=Camino de Guanajuato
TTITLE4=Ella... la que se fue
TTITLE5=Cuatro caminos
TTITLE6=Cuando los años pasen
TTITLE7=Porque volviste
TTITLE8=Tú y la mentira
TTITLE9=Vámonos
EXTD=YEAR: 2004
EXTT0=
EXTT1=
EXTT2=
EXTT3=
EXTT4=
EXTT5=
EXTT6=
EXTT7=
EXTT8=
EXTT9=
PLAYORDER=
